<svg xmlns="http://www.w3.org/2000/svg" width="1200" height="430" viewBox="0 0 1200 430">
<defs>
  <linearGradient id="bg" x1="0" y1="0" x2="1" y2="1"><stop offset="0%" stop-color="#050816"/><stop offset="100%" stop-color="#0b1d2a"/></linearGradient>
  <linearGradient id="cyan" x1="0" y1="0" x2="1" y2="0"><stop offset="0%" stop-color="#06b6d4"/><stop offset="100%" stop-color="#67e8f9"/></linearGradient>
  <filter id="glow"><feGaussianBlur stdDeviation="3" result="b"/><feMerge><feMergeNode in="b"/><feMergeNode in="SourceGraphic"/></feMerge></filter>
  <style>
    .m{font-family:'DejaVu Sans Mono',monospace}.s{font-family:Arial,sans-serif}
    .w{fill:#f8fafc}.c{fill:#67e8f9}.g{fill:#86efac}.muted{fill:#94a3b8}
  </style>
</defs>
<rect x="8" y="8" width="1184" height="414" rx="18" fill="url(#bg)" stroke="#06b6d4" stroke-width="2"/>
<rect x="22" y="22" width="1156" height="52" rx="11" fill="#08111f" stroke="#164e63"/>
<circle cx="49" cy="48" r="7" fill="#ef4444"/><circle cx="73" cy="48" r="7" fill="#f59e0b"/><circle cx="97" cy="48" r="7" fill="#22c55e"/>
<text x="122" y="54" class="m c" font-size="18" font-weight="700">SUFYAN@DEV — COMMAND CENTER</text>
<text x="1050" y="54" class="m g" font-size="14">● AVAILABLE</text>

<!-- panels -->
<rect x="22" y="92" width="360" height="306" rx="12" fill="#07101c" stroke="#164e63"/>
<rect x="402" y="92" width="360" height="306" rx="12" fill="#07101c" stroke="#164e63"/>
<rect x="782" y="92" width="396" height="306" rx="12" fill="#07101c" stroke="#164e63"/>

<!-- identity -->
<text x="46" y="126" class="m c" font-size="16" font-weight="700">$ whoami</text>
<text x="46" y="157" class="m w" font-size="15">&gt; Mohd Sufyan Khan</text>
<text x="46" y="194" class="m c" font-size="16" font-weight="700">$ role</text>
<text x="46" y="225" class="m w" font-size="15">&gt; Java Backend &amp;</text>
<text x="46" y="249" class="m w" font-size="15">  Full Stack Developer</text>
<text x="46" y="286" class="m c" font-size="16" font-weight="700">$ status</text>
<text x="46" y="317" class="m g" font-size="14">&gt; OPEN TO SOFTWARE</text>
<text x="46" y="340" class="m g" font-size="14">  ENGINEERING ROLES</text>
<text x="46" y="375" class="m muted" font-size="13">$ _</text>

<!-- stack -->
<text x="426" y="126" class="m c" font-size="16" font-weight="700">⚙ PRIMARY STACK</text>
<line x1="426" y1="140" x2="738" y2="140" stroke="#164e63"/>
<text x="426" y="174" class="s w" font-size="15">☕  Java</text>
<text x="426" y="208" class="s w" font-size="15">🌱  Spring Boot</text>
<text x="426" y="242" class="s w" font-size="15">🔗  REST APIs</text>
<text x="426" y="276" class="s w" font-size="15">🔐  Spring Security + JWT</text>
<text x="426" y="310" class="s w" font-size="15">⚛  React.js</text>
<text x="426" y="344" class="s w" font-size="15">🗄  MySQL + JPA/Hibernate</text>
<text x="426" y="378" class="s w" font-size="15">🐳  Git + Docker + Postman</text>

<!-- work -->
<text x="806" y="126" class="m c" font-size="16" font-weight="700">🚀 FEATURED WORK</text>
<line x1="806" y1="140" x2="1152" y2="140" stroke="#164e63"/>
<text x="806" y="176" class="m g" font-size="14">[01]</text><text x="855" y="176" class="s w" font-size="15" font-weight="700">Food Express</text>
<rect x="1083" y="158" width="67" height="24" rx="5" fill="none" stroke="#22c55e"/><text x="1097" y="175" class="m g" font-size="11">LIVE</text>
<text x="806" y="220" class="m g" font-size="14">[02]</text><text x="855" y="220" class="s w" font-size="15" font-weight="700">UrbanEats</text>
<rect x="1072" y="202" width="78" height="24" rx="5" fill="none" stroke="#67e8f9"/><text x="1083" y="219" class="m c" font-size="11">SOURCE</text>
<text x="806" y="264" class="m g" font-size="14">[03]</text><text x="855" y="264" class="s w" font-size="15" font-weight="700">Expense Tracker</text>
<rect x="1083" y="246" width="67" height="24" rx="5" fill="none" stroke="#22c55e"/><text x="1097" y="263" class="m g" font-size="11">LIVE</text>
<text x="806" y="310" class="m c" font-size="15" font-weight="700">$ currently_learning</text>
<text x="806" y="338" class="m w" font-size="13">Microservices → Redis → Kafka</text>
<text x="806" y="361" class="m w" font-size="13">→ AI Integration</text>
<text x="806" y="388" class="m muted" font-size="12">$ build something useful_</text>
</svg>